<?xml version="1.0" encoding="utf-8"?>
<!-- Generator: Adobe Illustrator 21.0.0, SVG Export Plug-In . SVG Version: 6.00 Build 0)  -->
<svg version="1.1" id="Capa_1" xmlns="http://www.w3.org/2000/svg" xmlns:xlink="http://www.w3.org/1999/xlink" x="0px" y="0px"
	 viewBox="0 0 209.7 91.7" style="enable-background:new 0 0 209.7 91.7;" xml:space="preserve">
<style type="text/css">
	.st0{fill:#E30613;}
	.st1{fill:#706F6F;}
</style>
<g>
	<path class="st0" d="M44.2,1.9c0.7,1.2,1,2.4,1.1,3.7c0.1,1.3-0.2,2.5-0.9,3.8c-0.7,1.4-1.5,2.7-2.3,4.1c-0.8,1.3-1.7,2.7-2.7,4
		c-1.9,2.6-3.9,5-6,7.4c-2.1,2.3-4.1,4.8-6.2,7.3c-2.1,2.7-4.1,5.3-6.2,8c-2.1,2.6-4.1,5.4-6.1,8.2c-1,1.4-2,2.7-2.9,4.1
		c-0.9,1.4-1.8,2.7-2.7,4.1c-0.5,0.7-0.9,1.4-1.3,2.1c-0.4,0.7-0.8,1.4-1.2,2.1c-0.3,0.5-0.6,1-0.8,1.6c-0.2,0.6-0.4,1.1-0.5,1.7
		c0.7-0.1,1.3-0.2,2.1-0.5c0.7-0.3,1.4-0.5,2-0.8c1-0.3,2-0.6,3-1c1-0.4,2-0.7,3-1.1c2-0.7,3.9-1.3,5.9-2c2-0.7,4-1.3,6-1.8
		c3.8-1,7.6-1.8,11.4-2.3c3.8-0.5,7.6-0.8,11.5-0.8c0.8,0,1.5,0,2.3,0c0.7,0,1.5,0.1,2.3,0.1c0.4,0,0.8,0,1.2,0.1
		c0.4,0.1,0.7,0.3,0.8,0.8c0.1,0.7-0.2,1.1-0.8,1.2c-0.6,0.1-1.1,0.2-1.6,0.3c-0.8,0.1-1.6,0.2-2.4,0.4c-0.8,0.1-1.6,0.2-2.4,0.4
		c-3.9,0.7-7.7,1.4-11.4,2.3c-3.7,0.9-7.5,1.9-11.2,3.1c-2,0.6-3.9,1.2-5.9,1.9c-2,0.7-3.9,1.4-5.9,2c-1.7,0.5-3.4,1.2-5.3,1.9
		c-1.8,0.7-3.7,1-5.4,1c-0.9-0.1-1.7-0.3-2.5-0.7c-0.7-0.4-1.3-1-1.6-1.8C0.1,66,0,65.2,0,64.4c0-0.8,0.2-1.6,0.4-2.4
		c0.2-0.8,0.5-1.6,0.9-2.3C1.7,59,2,58.3,2.4,57.6c1.9-3.6,4-7.1,6.4-10.4c2.4-3.3,4.8-6.6,7.2-9.9c2.5-3.3,5-6.6,7.4-9.9
		c2.5-3.2,4.9-6.5,7.4-9.8c1.4-2,2.9-4,4.3-6c1.4-2,2.8-4,4-6.1c0.5-0.8,0.9-1.6,1.3-2.4c0.4-0.8,0.8-1.6,1.2-2.5
		C41.9,0.2,42.1,0,42.4,0s0.5,0.1,0.8,0.3c0.2,0.2,0.4,0.5,0.6,0.8C43.9,1.4,44.1,1.7,44.2,1.9z"/>
	<path class="st0" d="M19.2,50c0.4,0.1,0.9,0.1,1.5,0c0.6-0.1,1.1-0.3,1.7-0.5c0.6-0.2,1.1-0.5,1.6-0.8c0.5-0.3,0.9-0.5,1.2-0.7
		c1-0.5,2-1.1,2.9-1.7c1-0.6,1.9-1.3,2.8-1.9c1.3-0.9,2.6-1.9,4-2.9c1.1-3.7,2.8-7.3,5.1-10.7c2.3-3.4,4.8-6.5,7.3-9.5
		c2.5-3.2,5.2-6.2,8.2-9c1.2-1.2,2.6-2.4,4.1-3.7c1.5-1.3,3.1-2.2,4.9-2.6c0.7-0.2,1.3-0.2,2,0c0.7,0.2,1.1,0.6,1.4,1.2
		C68.3,8,68.3,8.8,68,9.7c-0.3,0.9-0.7,1.6-1,2.3c-1,1.7-2.1,3.4-3.4,4.9c-1.2,1.5-2.5,3.1-3.8,4.5c-2.7,3-5.4,6-8.2,8.9
		c-2.8,2.9-5.7,5.7-8.7,8.4l-5.3,4.5c-0.2,0.4-0.3,0.9-0.5,1.3c-0.1,0.5-0.2,1,0,1.4v0.2c0,0.1,0,0.1,0.1,0.1
		c0.3,0.2,0.7,0.3,1.1,0.2c0.4-0.1,0.8-0.3,1.1-0.4c0.9-0.4,1.7-0.8,2.5-1.3c0.8-0.5,1.5-1.1,2.3-1.7c1.4-1.1,2.8-2.2,4.1-3.4
		c1.3-1.2,2.7-2.4,4.1-3.5c0.1-0.1,0.2-0.2,0.4-0.4c0.2-0.2,0.5-0.4,0.7-0.6c0.2-0.2,0.5-0.3,0.7-0.4c0.2-0.1,0.4,0,0.5,0.1
		c0.1,0.2,0.1,0.4,0,0.7c-0.1,0.3-0.3,0.5-0.5,0.8c-0.2,0.3-0.4,0.5-0.7,0.8c-0.2,0.3-0.4,0.5-0.4,0.6c-2.3,2.8-5,5.4-8,7.8
		c-0.6,0.5-1.3,1-2,1.5c-0.7,0.5-1.5,1-2.3,1.3c-0.8,0.4-1.6,0.6-2.5,0.8c-0.8,0.1-1.6,0-2.4-0.4c-0.7-0.3-1.1-0.7-1.3-1.2
		c-0.2-0.5-0.3-1.1-0.4-1.7c-0.1,0.1-0.3,0.2-0.5,0.4c-1.5,1.1-3.1,2.2-4.8,3.3c-1.7,1.1-3.4,1.9-5.2,2.4c-1.5,0.4-2.9,0.4-4.1-0.1
		l-0.9-0.4c-0.2-0.3-0.3-0.6-0.2-0.8C18.7,50.2,18.9,50,19.2,50z M47.7,26.2c-1.4,1.7-2.7,3.5-3.9,5.3c-1.2,1.8-2.4,3.7-3.5,5.6
		l3.3-2.9c2.2-2,4.3-4,6.4-6.1c2.1-2.1,4.1-4.2,6.1-6.4c1-1.1,2-2.2,2.9-3.3c0.9-1.1,1.8-2.3,2.6-3.6c0.4-0.6,0.8-1.2,1.2-1.7
		s0.7-1.1,1-1.8c0.4-0.8,0.7-1.5,1-2.1l-0.4,0.2c-0.5,0.2-0.9,0.5-1.3,0.8c-0.4,0.3-0.8,0.6-1.2,0.9c-0.8,0.7-1.7,1.5-2.5,2.2
		c-0.8,0.8-1.7,1.6-2.5,2.4c-1.6,1.7-3.2,3.4-4.7,5.2C50.5,22.6,49.1,24.4,47.7,26.2z"/>
	<path class="st0" d="M67.7,30.3c-0.9-0.1-1.8,0.1-2.7,0.4c-0.9,0.3-1.8,0.7-2.6,1.2c-0.8,0.5-1.6,1.1-2.4,1.7
		c-0.7,0.7-1.4,1.3-2,1.9c-0.8,0.9-1.6,1.8-2.4,2.8c-0.7,1-1.4,2-2,3.1c-0.7,1-1.2,2.1-1.5,3.4c-0.1,0.1-0.1,0.4-0.2,0.8
		c-0.1,0.4,0,0.7,0.1,0.8c0.7,0.1,1.3,0,1.9-0.4c0.6-0.4,1.2-0.7,1.6-1.1c0.8-0.5,1.6-1.1,2.3-1.8c0.7-0.7,1.4-1.3,2.1-2l1.2-1.2
		c0.5-1,1-2,1.6-2.9c0.6-1,1.1-1.9,1.7-2.8c0.4-0.6,0.8-1.2,1.4-1.7c0.6-0.6,1.2-0.9,1.9-0.9c1,0,1.3,0.5,1.2,1.5
		c-0.3,0.8-0.7,1.6-1.2,2.3c-0.5,0.7-1.1,1.5-1.6,2.3l-1,2.2c-0.3,0.7-0.6,1.4-0.8,2.1c-0.3,0.7-0.5,1.4-0.6,2.1
		c-0.2,0.6-0.2,1.2-0.1,1.7c0.3,0.1,0.7,0,1.1-0.2c0.4-0.2,0.8-0.4,1.2-0.7c0.4-0.3,0.7-0.6,1.1-0.9c0.3-0.3,0.6-0.6,0.8-0.8
		c0.8-0.7,1.6-1.3,2.3-2c0.7-0.7,1.4-1.4,2.1-2.1c0.7-0.6,1.3-1.2,1.8-1.8c0.6-0.6,1.2-1.2,1.8-1.7c0.2-0.1,0.4-0.3,0.7-0.5
		c0.3-0.2,0.5-0.4,0.8-0.5c0.3-0.1,0.6-0.2,0.8-0.1c0.2,0.1,0.4,0.3,0.4,0.6c0.1,0.5-0.2,1.1-0.8,1.8c-0.6,0.7-1,1.2-1.2,1.6
		l-3.7,4.4c-0.5,0.6-1.1,1.2-1.8,1.9c-0.7,0.7-1.3,1.3-2.1,2c-0.7,0.6-1.5,1.2-2.3,1.6s-1.6,0.7-2.5,0.8c-1.5,0.3-2.6,0-3.4-1
		c-0.8-1-1.1-2.1-1-3.4c-0.8,0.8-1.8,1.6-2.9,2.4c-0.4,0.3-0.9,0.6-1.3,0.9c-0.5,0.3-1,0.6-1.5,0.8c-0.5,0.2-1.1,0.4-1.6,0.4
		c-0.6,0.1-1.1,0-1.6-0.3c-1-0.4-1.6-0.9-2-1.7c-0.4-0.8-0.5-1.6-0.5-2.5c0-0.9,0.2-1.8,0.5-2.7c0.3-0.9,0.6-1.7,1-2.4
		c1-2.1,2.3-4,3.9-5.6c1.6-1.7,3.4-3,5.4-4c1-0.6,2.1-1.1,3.2-1.4c1.1-0.4,2.3-0.5,3.5-0.4c0.3,0.1,0.6,0.1,0.9,0.1
		c0.3,0,0.6,0.1,0.9,0.2c0.4,0.1,0.6,0.4,0.6,0.8C68.4,30.2,68.2,30.4,67.7,30.3z"/>
	<path class="st0" d="M82.7,30.1c-1.5,2.9-2.9,5.7-4.2,8.5c-1.3,2.8-2.7,5.6-4,8.5l2.5-2.3c2.7-2.6,5.6-4.9,8.7-7
		c0.7-0.5,1.3-0.9,2-1.4c0.7-0.4,1.3-0.9,2-1.3c0.5-0.3,0.8-0.4,1.1-0.2c0.2,0.2,0.1,0.5-0.3,1c-2.5,2.7-5,5.2-7.6,7.7
		c-2.6,2.4-5.2,4.9-7.8,7.5l-4.3,4.4c-1,2.2-2,4.4-3.1,6.5c-1,2.1-2.1,4.3-3.3,6.4c-0.9,1.8-1.8,3.7-2.8,5.5c-1,1.8-2,3.6-3,5.4
		c-1,1.7-2.1,3.4-3.2,5c-1.1,1.6-2.4,3.2-3.8,4.7c-0.5,0.5-1,1-1.6,1.4c-0.6,0.5-1.3,0.8-2,1.1c-0.7,0.3-1.4,0.4-2.1,0.4
		c-0.7,0-1.4-0.3-2-0.9c-0.7-0.6-1-1.3-1.1-2.2c-0.1-0.9,0-1.8,0.3-2.7c0.3-0.9,0.6-1.8,1-2.6c0.4-0.8,0.8-1.5,1.1-2.1
		c1.9-3.6,4.2-6.9,6.8-10.1c2.6-3.2,5.3-6.3,7.9-9.3c1.2-1.4,2.4-2.7,3.7-4c1.2-1.3,2.5-2.6,3.8-3.9c1.2-2.5,2.3-4.9,3.5-7.3
		c1.1-2.4,2.3-4.8,3.5-7.3l1.9-4c0.4-0.7,0.7-1.3,0.9-2c0.3-0.7,0.6-1.3,1.1-1.8c0.4-0.4,0.8-0.8,1.3-1.1c0.5-0.3,1-0.6,1.5-0.9
		c0.1-0.1,0.3-0.2,0.4-0.3c0.1-0.1,0.3-0.1,0.4-0.1c0.4-0.1,0.6,0,0.8,0.3C82.9,29.5,82.9,29.8,82.7,30.1z M57.2,74.7
		c1-1.8,2-3.7,2.9-5.5c0.9-1.8,1.8-3.7,2.7-5.5l-4.6,5.3c-1.4,1.7-2.8,3.3-4.1,5c-1.3,1.7-2.6,3.4-3.8,5.3c-1.1,1.6-2.1,3.3-3,5.2
		c-0.1,0.1-0.2,0.4-0.3,0.9c-0.1,0.5-0.3,1-0.5,1.4c-0.2,0.5-0.3,0.9-0.4,1.3c-0.1,0.4-0.1,0.6,0,0.6c0.5,0,1-0.1,1.5-0.4
		c0.4-0.3,0.9-0.7,1.5-1.2c0.5-0.5,1-1,1.5-1.6c0.4-0.6,0.9-1.2,1.4-1.8c1-1.4,1.9-2.9,2.8-4.3C55.5,77.7,56.3,76.2,57.2,74.7z
		 M83.3,23.3c-0.3-0.8-0.2-1.7,0.3-2.6c0.5-0.9,1-1.6,1.7-2.1c0.2-0.2,0.6-0.5,1-0.7c0.4-0.2,0.9-0.4,1.4-0.5c0.5-0.1,0.9-0.1,1.3,0
		c0.4,0.1,0.7,0.4,0.9,1c0.2,0.7,0.1,1.5-0.5,2.4c-0.6,0.9-1.3,1.6-2.1,2.1c-0.8,0.6-1.6,0.9-2.5,1.1C84,24.1,83.5,23.9,83.3,23.3z"
		/>
	<path class="st0" d="M97,29.6c-0.2,0.8-0.5,1.5-0.9,2.1c-0.4,0.7-0.8,1.3-1.2,2c-0.5,0.8-1.1,1.5-1.6,2.3c-0.5,0.7-1,1.5-1.5,2.3
		c-0.5,0.8-0.9,1.5-1.3,2.3c-0.4,0.7-0.7,1.5-1,2.4c-0.2,0.5-0.4,0.9-0.5,1.4c-0.2,0.4-0.3,0.9-0.4,1.4c-0.1,0.1-0.1,0.3-0.2,0.7
		c-0.1,0.3-0.1,0.6,0,0.8c0.8,0,1.6-0.1,2.4-0.4c0.7-0.3,1.5-0.7,2.2-1.2c0.7-0.5,1.4-1.1,2.1-1.7c0.7-0.6,1.3-1.2,1.9-1.7
		c2.9-2.7,5.6-5.8,8.2-9.2c0.5-0.6,0.9-1.2,1.3-2s0.9-1.3,1.4-1.8c0.4-0.2,0.7-0.3,1.1-0.3c0.4,0,0.7,0.1,0.9,0.4
		c0.3,0.2,0.5,0.5,0.6,0.8c0.1,0.4,0.1,0.7,0,1.2c-0.1,0.4-0.3,0.8-0.7,1.2c-0.3,0.4-0.6,0.8-0.9,1.2l-1.6,2.6
		c-0.5,0.9-1,1.8-1.5,2.8c-0.5,1-0.9,1.9-1.2,2.9c-0.1,0.2-0.2,0.5-0.3,0.9c-0.1,0.4-0.3,0.9-0.4,1.3c-0.1,0.5-0.2,0.9-0.2,1.3
		c0,0.4,0.1,0.6,0.4,0.7c0.5-0.1,1-0.2,1.5-0.3c0.4-0.1,0.9-0.3,1.4-0.7c1.7-1,3.2-2.2,4.7-3.5s2.9-2.6,4.4-3.9
		c0.8-0.5,1.5-1.1,2.2-1.6c0.7-0.5,1.5-1,2.3-1.4c0.4-0.1,0.6,0,0.6,0.3c0,0.2-0.1,0.5-0.3,0.9c-0.2,0.4-0.5,0.7-0.8,1
		c-0.3,0.3-0.5,0.6-0.6,0.8c-1.2,1.5-2.5,3-3.8,4.4c-1.3,1.4-2.8,2.7-4.2,4c-1,0.8-2.1,1.5-3.2,2.1c-1.1,0.7-2.3,1-3.6,1.2
		c-1.2,0.1-2.2-0.2-2.9-1s-1.1-1.8-1.2-3c-0.1-0.5-0.1-1,0-1.4c0.1-0.5,0.1-1,0.3-1.4l-2.9,2.9c-1.1,1-2.3,2-3.6,3
		c-1.3,1-2.7,1.8-4.1,2.2c-1.2,0.4-2.4,0.3-3.4-0.2c-1-0.5-1.7-1.4-2-2.8c-0.2-1.4,0-2.9,0.4-4.4c0.4-1.5,1-2.9,1.6-4.2
		c1.2-2.9,2.9-5.6,5-8.1c0.5-0.5,1-1,1.5-1.4c0.5-0.4,1.1-0.7,1.8-1c0.4-0.1,0.9-0.1,1.5-0.1C97,28.4,97.2,28.8,97,29.6z"/>
	<path class="st0" d="M133.5,30.3c-0.9-0.1-1.8,0.1-2.7,0.4c-0.9,0.3-1.8,0.7-2.6,1.2c-0.8,0.5-1.6,1.1-2.4,1.7
		c-0.7,0.7-1.4,1.3-2,1.9c-0.8,0.9-1.6,1.8-2.4,2.8c-0.7,1-1.4,2-2,3.1c-0.7,1-1.2,2.1-1.5,3.4c-0.1,0.1-0.1,0.4-0.2,0.8
		c-0.1,0.4,0,0.7,0.1,0.8c0.7,0.1,1.3,0,1.9-0.4s1.2-0.7,1.6-1.1c0.8-0.5,1.6-1.1,2.3-1.8c0.7-0.7,1.4-1.3,2.1-2l1.2-1.2
		c0.5-1,1-2,1.6-2.9c0.6-1,1.1-1.9,1.7-2.8c0.4-0.6,0.8-1.2,1.4-1.7c0.6-0.6,1.2-0.9,1.9-0.9c1,0,1.3,0.5,1.2,1.5
		c-0.3,0.8-0.7,1.6-1.2,2.3c-0.5,0.7-1.1,1.5-1.7,2.3l-1,2.2c-0.3,0.7-0.6,1.4-0.8,2.1c-0.3,0.7-0.5,1.4-0.6,2.1
		c-0.2,0.6-0.2,1.2-0.1,1.7c0.3,0.1,0.7,0,1.1-0.2c0.4-0.2,0.8-0.4,1.2-0.7c0.4-0.3,0.7-0.6,1.1-0.9c0.3-0.3,0.6-0.6,0.8-0.8
		c0.8-0.7,1.6-1.3,2.3-2c0.7-0.7,1.4-1.4,2.1-2.1c0.7-0.6,1.3-1.2,1.8-1.8c0.6-0.6,1.2-1.2,1.8-1.7c0.2-0.1,0.4-0.3,0.7-0.5
		c0.3-0.2,0.5-0.4,0.8-0.5c0.3-0.1,0.6-0.2,0.8-0.1c0.2,0.1,0.4,0.3,0.4,0.6c0.1,0.5-0.2,1.1-0.8,1.8c-0.6,0.7-1,1.2-1.2,1.6
		l-3.7,4.4c-0.5,0.6-1.1,1.2-1.8,1.9c-0.7,0.7-1.3,1.3-2.1,2c-0.7,0.6-1.5,1.2-2.3,1.6s-1.6,0.7-2.5,0.8c-1.5,0.3-2.6,0-3.4-1
		c-0.8-1-1.1-2.1-1-3.4c-0.8,0.8-1.8,1.6-2.9,2.4c-0.4,0.3-0.9,0.6-1.3,0.9c-0.5,0.3-1,0.6-1.5,0.8c-0.5,0.2-1.1,0.4-1.6,0.4
		c-0.6,0.1-1.1,0-1.7-0.3c-1-0.4-1.6-0.9-2-1.7c-0.4-0.8-0.5-1.6-0.5-2.5c0-0.9,0.2-1.8,0.5-2.7c0.3-0.9,0.6-1.7,1-2.4
		c1-2.1,2.3-4,3.9-5.6c1.6-1.7,3.4-3,5.4-4c1-0.6,2.1-1.1,3.2-1.4c1.1-0.4,2.3-0.5,3.5-0.4c0.3,0.1,0.6,0.1,0.9,0.1
		c0.3,0,0.6,0.1,0.9,0.2c0.4,0.1,0.6,0.4,0.6,0.8C134.2,30.2,134,30.4,133.5,30.3z"/>
	<path class="st0" d="M139.3,39.4c0.5-1,1.2-2,1.9-2.9c0.7-1,1.4-1.9,2.1-2.9c0.3-0.4,0.6-0.8,0.8-1.2c0.3-0.4,0.5-0.8,0.8-1.2
		c-0.2-0.1-0.3-0.3-0.4-0.6c-0.4-1-0.5-1.9-0.4-2.9c0.1-1,0.6-1.8,1.4-2.4c0.8-0.7,1.7-0.8,2.7-0.4c0.7,0.3,1.1,0.7,1.3,1.1
		c0.2,0.4,0.3,0.9,0.2,1.5c-0.1,0.5-0.3,1.1-0.6,1.7c-0.3,0.6-0.6,1.2-1,1.8c0.7,0,1.6-0.2,2.5-0.5c1-0.4,1.7-0.6,2.1-0.7
		c0.5-0.2,1-0.2,1.4,0c0.5,0.1,0.9,0.4,1.2,0.8c0.3,0.4,0.4,0.8,0.4,1.2c0,0.5-0.2,0.9-0.6,1.3c-1.1,1.4-2.3,2.7-3.4,3.9
		c-1.2,1.2-2.2,2.6-3.2,4.1c-0.4,0.7-0.9,1.4-1.3,2.3c-0.5,0.9-0.7,1.7-0.5,2.5c0,0.2,0.2,0.3,0.5,0.2c0.4-0.1,0.8-0.3,1.2-0.5
		c0.4-0.2,0.9-0.4,1.2-0.7c0.4-0.3,0.6-0.4,0.8-0.5c1.5-1.1,3-2.3,4.4-3.6c1.4-1.3,2.8-2.6,4.2-3.9c0.2-0.2,0.7-0.7,1.3-1.3
		s1.2-0.9,1.5-0.8c0.2,0.1,0.3,0.3,0.2,0.6c-0.1,0.3-0.2,0.6-0.4,0.9c-0.2,0.3-0.4,0.6-0.6,0.9c-0.2,0.3-0.4,0.5-0.4,0.6
		c-1.1,1.5-2.3,2.9-3.7,4.2c-1.4,1.3-2.8,2.6-4.1,3.8c-0.5,0.4-1,0.9-1.7,1.4c-0.7,0.5-1.4,0.9-2.1,1.3c-0.7,0.4-1.5,0.6-2.2,0.6
		c-0.7,0-1.4-0.2-2-0.8c-0.7-0.6-1.1-1.3-1.3-2.1c-0.1-0.8-0.1-1.6,0.1-2.5c0.2-0.9,0.6-1.8,1-2.6c0.4-0.8,0.8-1.6,1.2-2.2
		c0.5-0.8,1-1.6,1.6-2.4c0.6-0.8,1.1-1.5,1.7-2.3c-1.3,0.1-2.3-0.1-2.9-0.6l-0.4,0.4c-0.7,0.8-1.3,1.6-2,2.4
		c-0.7,0.7-1.4,1.5-2.1,2.2l-1.8,1.6c-0.2,0.1-0.5,0.1-0.8,0.1C139.1,40,139.1,39.8,139.3,39.4z"/>
	<path class="st0" d="M161.4,25.5c0.4-0.7,0.8-1.1,1.4-1.2c0.6-0.2,1.2-0.3,1.9-0.4c0.7-0.1,1.3-0.2,1.9-0.3
		c0.6-0.1,1.3-0.2,1.9-0.2l3.2-3.7c0.7-0.7,1.3-1.3,1.9-2c0.6-0.7,1.3-1.4,2-2c0.7-0.6,1.4-1.2,2.1-1.9c0.7-0.7,1.6-1.1,2.5-1.3
		c0.6-0.2,1.2-0.1,1.7,0.2c0.6,0.3,0.9,0.8,1,1.4c0.1,0.9-0.1,1.8-0.6,2.6c-0.5,0.8-1,1.6-1.5,2.2c-0.9,1.3-1.8,2.5-2.8,3.6
		c0.7-0.1,1.3-0.1,2-0.2c0.7-0.1,1.4-0.1,2-0.3c7.7-0.8,15.5-1.4,23.5-1.9c0.5-0.1,1-0.1,1.7-0.2c0.7-0.1,1.2,0,1.7,0.2
		c0.6,0.1,0.8,0.4,0.5,1c-0.2,0.5-0.5,1-0.7,1.2c-0.5,0.6-1.1,0.9-1.8,0.9c-0.7,0-1.4,0-2.1,0l-6,0.4c-3.9,0.2-7.7,0.4-11.5,0.5
		c-3.8,0.1-7.7,0.3-11.5,0.8c-1,1-1.9,2-2.9,2.9c-1,0.9-1.9,1.8-2.9,2.7c-1,0.8-2,1.7-2.9,2.5c-1,0.8-1.9,1.7-2.9,2.5
		c-0.3,0.2-0.6,0.4-0.8,0.6c-0.2,0.2-0.4,0.4-0.7,0.7c-0.7,1.2-1.3,2.6-1.9,4.2c-0.1,0.3-0.3,0.7-0.5,1.2c-0.2,0.5-0.4,1.1-0.5,1.6
		c-0.1,0.6-0.1,1.1-0.1,1.7c0.1,0.5,0.3,0.9,0.6,1.1c0.7,0.1,1.3,0.1,2-0.2c0.7-0.2,1.4-0.6,2-1c-0.3-1.5-0.1-2.9,0.4-4.4
		c0.6-1.7,1.5-3.4,2.6-5c1.2-1.6,2.5-3,3.9-4.3c0.4-0.4,0.9-0.8,1.6-1.3c0.6-0.5,1.3-0.9,1.9-1.2c0.7-0.3,1.3-0.5,2-0.6
		c0.7-0.1,1.3,0.2,1.9,0.7c0.5,0.5,0.8,1,0.9,1.7c0.1,0.7,0,1.3-0.3,2c-0.2,0.7-0.6,1.3-1,2c-0.4,0.6-0.8,1.2-1.1,1.6
		c-2.3,3.2-4.9,6-7.9,8.5l-0.6,0.5c0.4,0.1,0.8,0,1.3-0.2c0.4-0.2,0.8-0.4,1.1-0.5c1-0.4,1.9-0.9,2.8-1.4c0.9-0.5,1.7-1.1,2.5-1.7
		c1.5-1,3-2.1,4.4-3.2c1.4-1.1,2.8-2.2,4.3-3.3c0.1-0.1,0.3-0.2,0.5-0.4c0.2-0.2,0.4-0.3,0.5-0.4c0.3-0.1,0.5-0.1,0.7,0.1
		c0.1,0.2,0.2,0.4,0,0.6c-0.4,0.5-0.8,1.1-1.2,1.6c-0.4,0.6-0.9,1.1-1.3,1.6c-1.2,1.4-2.5,2.7-3.9,4c-1.4,1.3-2.9,2.4-4.4,3.4
		c-0.7,0.5-1.4,1-2.2,1.4c-0.8,0.5-1.6,0.9-2.5,1.2c-0.9,0.3-1.7,0.5-2.6,0.5c-0.9,0-1.7-0.2-2.5-0.8c-0.2-0.1-0.4-0.2-0.6-0.4
		c-1,0.7-2,1.1-3,1.4c-1,0.3-2,0.3-3,0c-1-0.3-1.7-0.8-2.1-1.6c-0.4-0.8-0.5-1.6-0.5-2.5c0-0.9,0.1-1.8,0.4-2.8
		c0.3-1,0.5-1.8,0.8-2.4c1-2.5,2.2-4.9,3.6-7.1c1.4-2.3,2.9-4.5,4.5-6.6h-0.2c-0.2,0.1-0.6,0.1-1.2,0.3c-0.7,0.1-1.3,0.2-1.9,0.2
		c-0.6,0-1.1,0-1.5-0.2C161.1,26.4,161.1,26,161.4,25.5z M169.4,26.5c-0.8,1.1-1.7,2.3-2.5,3.4c-0.8,1.2-1.6,2.3-2.3,3.5l4.8-5
		c1-1,2-2.1,2.9-3.1l-2.2,0.3L169.4,26.5z M168.3,41.7c-0.2,0.4-0.4,0.8-0.4,1.2c2-1.5,3.8-3.2,5.6-5.3c0.8-1,1.6-2,2.3-3
		c0.7-1,1.2-2.1,1.5-3.3h-0.1c0-0.1-0.1,0-0.4,0.1c-0.3,0.1-0.6,0.3-0.9,0.5c-0.3,0.2-0.6,0.4-0.9,0.6c-0.3,0.2-0.5,0.3-0.5,0.4
		c-1.4,1.2-2.5,2.5-3.5,4C169.8,38.4,168.9,40,168.3,41.7z M175,20c-0.5,0.5-0.9,1-1.4,1.5s-0.9,1.1-1.4,1.6l2.2-0.3l0.9-1.1
		c0.5-0.7,1-1.3,1.5-1.9c0.5-0.6,1-1.3,1.4-2c0.3-0.3,0.5-0.6,0.7-0.9c0.2-0.3,0.4-0.6,0.5-0.9c-0.2,0.1-0.4,0.3-0.6,0.4
		c-0.2,0.2-0.4,0.3-0.5,0.4L175,20z M180.8,15.3c-0.1,0-0.1,0-0.2,0.1C180.7,15.3,180.7,15.3,180.8,15.3z"/>
	<g>
		<path class="st1" d="M83.7,59.9l-2.1,9.2c-0.2,1-0.5,2.4-1.3,3.1c-0.8,0.7-1.8,0.7-2.7,0.7h-4l4.1-17.8h2.8c0.3,0,0.6,0,0.9,0
			c1.4,0.1,2,0.4,2.3,1c0.2,0.4,0.3,0.9,0.3,1.3C84.1,58.2,83.9,59.2,83.7,59.9z M80.2,57.2h-0.7l-3.2,13.6h0.7
			c0.6,0,1.3,0.1,1.7-0.5c0.3-0.4,0.5-1.2,0.7-2.3l1.9-8.2c0.2-0.8,0.3-1.4,0.3-1.7C81.7,57.1,80.9,57.2,80.2,57.2z"/>
		<path class="st1" d="M91.2,63.2l-0.8,3.5h-4.1l-0.6,2.6c-0.2,0.7-0.3,1-0.3,1.3s0.2,0.8,0.9,0.8c0.3,0,0.7-0.1,1-0.7
			c0.1-0.3,0.4-1.3,0.5-1.6l0.3-1.1h2L89.9,69c-0.2,0.5-0.3,1-0.4,1.6c-0.3,1-0.9,2.6-3.4,2.6c-2.2,0-2.6-1.3-2.6-2.3
			c0-0.4,0.1-0.7,0.2-1.5l1.5-6.4c0.1-0.3,0.2-0.7,0.3-1c0.3-1.2,0.7-2.1,1.9-2.5c0.6-0.2,1.1-0.2,1.3-0.2c1.5,0,2.8,0.7,2.8,2.3
			C91.5,62.1,91.4,62.7,91.2,63.2z M88.6,60.9c-0.4,0-0.6,0.1-0.7,0.3c-0.3,0.3-0.5,1-0.7,2L86.7,65h2l0.5-1.9
			c0.1-0.5,0.2-0.9,0.2-1.2C89.4,61.3,89.2,60.9,88.6,60.9z"/>
		<path class="st1" d="M98.7,63l-0.2,0.6h-1.9l0.1-0.6c0-0.1,0.2-0.6,0.2-1c0-0.3,0-0.4-0.1-0.5c-0.1-0.2-0.3-0.4-0.8-0.4
			c-0.3,0-0.7,0.1-0.9,0.7c-0.1,0.3-0.4,1.3-0.4,1.7s0.1,0.6,0.2,0.7c0.1,0.3,0.6,0.8,1.2,1.3c0.2,0.2,0.4,0.4,0.6,0.6
			c0.6,0.6,0.7,1.2,0.7,2c0,0.6-0.1,1.2-0.4,2.4c-0.1,0.3-0.3,1.4-1.1,2.1c-0.7,0.7-1.9,0.7-2.1,0.7c-0.7,0-2.8-0.2-2.8-2.5
			c0-0.7,0.2-1.3,0.5-2.6h1.9l-0.3,1.2C93.1,69.6,93,70,93,70.4c0,0.8,0.7,1,1,1c0.4,0,0.7-0.2,0.8-0.3c0.5-0.5,0.7-1.9,0.7-2.5
			c0-0.1,0-0.5-0.2-0.9c-0.2-0.4-1.2-1.3-1.5-1.7c-0.6-0.6-1-1.2-1-2.1c0-0.4,0.1-1.1,0.4-2.1c0.3-1.1,0.6-1.6,1-2
			c0.7-0.7,1.6-0.7,1.9-0.7c1.5,0,2.2,0.6,2.6,1.2c0.1,0.2,0.3,0.6,0.3,1.1C98.9,62.1,98.7,62.9,98.7,63z"/>
		<path class="st1" d="M106.4,62.7l-1.7,7.4c-0.2,0.7-0.4,1.4-0.4,2.1c0,0.3,0.1,0.5,0.1,0.8h-2.1v-1.1c-0.5,1.1-1.4,1.3-1.9,1.3
			c-1,0-1.7-0.7-1.7-1.6c0-0.5,0.1-1,0.2-1.5l0.3-1.2c0,0,0.3-1.2,0.6-1.9c0.1-0.2,0.2-0.4,0.5-0.6c0.6-0.5,1.6-0.9,2.2-1.2l0.6-0.3
			c0.3-0.2,0.6-0.3,0.9-0.5l0.5-2c0.1-0.2,0.1-0.5,0.1-0.7c0-0.4-0.3-0.7-0.7-0.7c-0.8,0-0.9,0.8-1,1.4l-0.4,1.5h-2.1l0.4-1.7
			c0.1-0.3,0.2-0.6,0.3-1c0.3-0.8,0.9-1.9,2.9-1.9c0.2,0,0.5,0,0.9,0.1c0.5,0.1,1.7,0.5,1.7,2C106.5,61.8,106.5,62,106.4,62.7z
			 M101.8,67.3c-0.5,0.5-0.6,1.1-0.7,1.7l-0.2,1c0,0.1-0.1,0.4-0.1,0.7c0,0.6,0.4,0.8,0.7,0.8c0.2,0,0.5-0.1,0.8-0.5
			c0.4-0.6,0.6-1.7,0.7-2.3l0.5-2.3C102.6,66.8,102.1,67,101.8,67.3z"/>
		<path class="st1" d="M113.4,61.7c-0.1-0.1-0.5-0.3-1-0.3c-0.4,0-1.1,0.1-1.6,0.9c-0.3,0.5-0.5,1-0.7,2.1l-2,8.5h-2l3.1-13.4h2
			l-0.5,2.3c0.1-0.3,0.2-0.5,0.3-0.7c0.6-1.2,1.1-1.5,1.7-1.7c0.2-0.1,0.4-0.1,0.8-0.1c0.1,0,0.3,0,0.4,0L113.4,61.7z"/>
		<path class="st1" d="M119.2,61.7c-0.1-0.1-0.5-0.3-1-0.3c-0.4,0-1.1,0.1-1.6,0.9c-0.3,0.5-0.5,1-0.7,2.1l-2,8.5h-2l3.1-13.4h2
			l-0.5,2.3c0.1-0.3,0.2-0.5,0.3-0.7c0.6-1.2,1.1-1.5,1.7-1.7c0.2-0.1,0.4-0.1,0.8-0.1c0.1,0,0.3,0,0.4,0L119.2,61.7z"/>
		<path class="st1" d="M126.2,63.1l-1.5,6.6c-0.1,0.4-0.4,1.6-0.6,2c-0.1,0.2-0.3,0.7-0.8,1c-0.8,0.5-1.9,0.5-2.1,0.5
			c-2.3,0-2.9-1.2-2.9-2.3c0-0.6,0.2-1.4,0.2-1.5l1.5-6.6c0.3-1.1,0.5-1.8,0.7-2.2c0.5-0.9,1.3-1.1,1.7-1.2c0.2-0.1,0.6-0.1,1.2-0.1
			c2.3,0,2.9,1.2,2.9,2.3C126.4,62.1,126.3,62.6,126.2,63.1z M123.3,60.8c-0.7,0-0.9,0.4-1,0.6c-0.1,0.3-0.2,0.7-0.4,1.4l-1.4,6.1
			c-0.1,0.4-0.3,1.2-0.3,1.5c0,0.9,0.8,1,1.1,1c0.2,0,0.7,0,0.9-0.5c0.1-0.2,0.3-0.8,0.4-1.5l1.4-6.1c0.1-0.4,0.3-1.2,0.3-1.5
			C124.4,60.9,123.6,60.8,123.3,60.8z"/>
		<path class="st1" d="M128.1,72.9H126l4-17.8h2L128.1,72.9z"/>
		<path class="st1" d="M132.3,72.9h-2.1l4-17.8h2L132.3,72.9z"/>
		<path class="st1" d="M143,63.1l-1.5,6.6c-0.1,0.4-0.4,1.6-0.6,2c-0.1,0.2-0.3,0.7-0.8,1c-0.8,0.5-1.9,0.5-2.1,0.5
			c-2.3,0-2.9-1.2-2.9-2.3c0-0.6,0.2-1.4,0.2-1.5l1.5-6.6c0.3-1.1,0.5-1.8,0.7-2.2c0.5-0.9,1.3-1.1,1.7-1.2c0.2-0.1,0.6-0.1,1.2-0.1
			c2.3,0,2.9,1.2,2.9,2.3C143.2,62.1,143.1,62.6,143,63.1z M140.1,60.8c-0.7,0-0.9,0.4-1,0.6c-0.1,0.3-0.2,0.7-0.4,1.4l-1.4,6.1
			c-0.1,0.4-0.3,1.2-0.3,1.5c0,0.9,0.8,1,1.1,1c0.2,0,0.7,0,0.9-0.5c0.1-0.2,0.3-0.8,0.4-1.5l1.4-6.1c0.1-0.4,0.3-1.2,0.3-1.5
			C141.2,60.9,140.4,60.8,140.1,60.8z"/>
		<path class="st1" d="M156.3,72.9h-2.7l1.7-12.8l-4.2,12.8h-2.7l2.1-17.8h2.4l-2.2,14.3l4.6-14.3h2.2l-2,14.3l4.5-14.3h2.4
			L156.3,72.9z"/>
		<path class="st1" d="M169,57.2h-3.4l-1.3,5.4h3.1l-0.5,2.1h-3.1l-1.4,6h3.9l-0.5,2.2h-6.3l4.1-17.8h5.7L169,57.2z"/>
		<path class="st1" d="M178,58.8l-0.6,2.4c-0.1,0.4-0.2,0.9-0.4,1.3c-0.6,1-1.8,1-2.1,1c0.2,0.1,1.1,0.2,1.4,0.8
			c0.2,0.3,0.2,0.8,0.2,0.9c0,0.5-0.2,1.1-0.3,1.5l-0.5,2.1c-0.1,0.6-0.3,1.2-0.5,1.8c0,0.2-0.2,1-0.7,1.5c-0.6,0.8-1.5,0.9-2.4,0.9
			h-4.7l4.1-17.8h2.9c1.1,0,1.6,0,2.1,0.1c0.5,0.1,1.5,0.6,1.5,2C178.3,57.7,178.1,58.3,178,58.8z M174,64.9
			c-0.3-0.4-0.6-0.4-1.3-0.4h-0.8l-1.4,6.2h0.7c1,0,1.4,0,1.8-0.5s0.5-1.1,0.7-2.2l0.3-1.2c0.2-0.7,0.2-1,0.2-1.4
			C174.2,65.2,174.1,65,174,64.9z M175.4,57.2c-0.3-0.1-0.6-0.1-1.2-0.1h-0.7l-1.3,5.4h0.7c0.9,0,1.4-0.1,1.7-0.4s0.5-0.7,0.7-1.6
			c0-0.3,0.1-0.5,0.2-0.8l0.3-1.2c0.1-0.4,0.1-0.6,0.1-0.8C175.9,57.5,175.6,57.3,175.4,57.2z"/>
	</g>
</g>
</svg>
